<?xml version="1.0" standalone="no"?>
<!DOCTYPE svg PUBLIC "-//W3C//DTD SVG 20010904//EN"
 "http://www.w3.org/TR/2001/REC-SVG-20010904/DTD/svg10.dtd">
<svg version="1.0" xmlns="http://www.w3.org/2000/svg"
 width="987.000000pt" height="967.000000pt" viewBox="0 0 987.000000 967.000000"
 preserveAspectRatio="xMidYMid meet">

<g transform="translate(0.000000,967.000000) scale(0.100000,-0.100000)"
fill="#000000" stroke="none">
<path d="M4775 9467 c-495 -209 -1037 -478 -1487 -738 -729 -423 -1374 -891
-2018 -1465 -340 -303 -865 -844 -1117 -1151 l-35 -43 17 -182 c161 -1776 677
-3434 1528 -4918 146 -254 286 -479 306 -490 20 -10 358 -85 581 -129 1332
-259 2649 -304 3970 -136 257 33 613 93 885 150 226 46 504 110 509 116 15 18
264 442 343 584 866 1560 1353 3172 1488 4926 l7 87 -132 148 c-437 491 -930
971 -1389 1352 -959 796 -1974 1409 -3130 1888 -85 35 -159 64 -165 64 -6 0
-78 -29 -161 -63z m410 -165 c1242 -531 2350 -1240 3345 -2140 354 -321 842
-820 1088 -1114 12 -14 10 -49 -8 -245 -153 -1653 -640 -3217 -1458 -4683 -89
-160 -276 -477 -309 -527 -10 -14 -322 -87 -613 -143 -542 -104 -1028 -164
-1630 -201 -243 -16 -1022 -16 -1275 0 -752 45 -1455 144 -2151 301 l-141 32
-28 47 c-233 380 -381 644 -541 962 -665 1328 -1065 2745 -1209 4278 l-15 164
36 44 c186 227 674 732 979 1014 935 862 2078 1608 3290 2147 319 142 369 162
400 158 17 -2 125 -44 240 -94z"/>
<path d="M4745 9186 c-373 -161 -806 -375 -1156 -570 -840 -468 -1632 -1043
-2294 -1664 -327 -307 -510 -493 -754 -767 -69 -77 -135 -152 -148 -166 l-24
-26 21 -209 c181 -1791 715 -3415 1616 -4915 51 -86 99 -161 106 -167 22 -18
462 -109 808 -167 1620 -271 3129 -228 4737 136 l101 23 92 154 c296 494 594
1088 810 1612 444 1076 717 2182 826 3348 l17 183 -30 32 c-16 18 -96 106
-178 197 -197 218 -625 644 -855 852 -995 894 -2060 1577 -3272 2099 -79 33
-163 69 -188 79 l-46 18 -189 -82z m405 -99 c1050 -452 2021 -1049 2900 -1786
371 -310 909 -829 1219 -1176 l144 -159 -7 -101 c-4 -55 -18 -197 -32 -315
-140 -1204 -459 -2349 -961 -3450 -165 -362 -415 -840 -616 -1177 -83 -140
-94 -154 -126 -162 -93 -25 -377 -84 -573 -120 -1439 -266 -2928 -260 -4410
20 -307 58 -520 106 -530 121 -36 53 -219 365 -299 509 -676 1220 -1132 2599
-1328 4019 -26 187 -71 586 -71 627 0 27 16 51 86 130 291 329 660 700 979
984 963 857 2053 1544 3300 2079 76 33 116 45 130 40 11 -4 99 -42 195 -83z"/>
<path d="M4718 8063 c-2 -4 -2 -124 0 -265 l4 -258 37 0 37 0 -3 168 -3 167
82 -167 81 -168 39 0 38 0 0 123 c0 67 -3 186 -7 265 l-6 142 -33 0 -34 0 -2
-167 -3 -166 -76 164 -76 164 -35 3 c-20 2 -38 -1 -40 -5z"/>
<path d="M4533 8043 c-28 -5 -28 3 -6 -215 19 -194 15 -222 -32 -234 -41 -10
-74 4 -90 39 -8 17 -23 111 -33 207 l-17 175 -38 3 c-35 3 -37 2 -37 -26 0
-46 29 -301 40 -356 20 -97 63 -136 150 -136 88 0 135 39 146 124 6 39 -18
339 -32 404 -4 22 -9 23 -51 15z"/>
<path d="M5271 8028 c-5 -13 -50 -126 -101 -252 -96 -242 -97 -246 -39 -246
23 0 29 8 46 53 23 59 29 62 118 52 l63 -6 7 -57 c8 -63 15 -72 63 -72 32 0
33 1 27 33 -47 257 -93 498 -96 501 -2 2 -21 6 -42 10 -33 6 -38 4 -46 -16z
m48 -185 c6 -38 14 -81 17 -96 l6 -29 -49 8 c-26 3 -50 8 -52 10 -3 3 60 174
64 174 2 0 8 -30 14 -67z"/>
<path d="M5615 7988 c-9 -30 -115 -501 -113 -503 2 -2 17 -6 35 -10 37 -7 31
-21 79 193 15 67 31 117 34 110 4 -7 22 -88 40 -180 l32 -166 35 -7 c19 -3 37
-4 40 -1 3 2 31 116 62 253 40 171 54 250 47 255 -6 4 -22 8 -36 8 -25 0 -27
-5 -59 -147 -18 -82 -36 -154 -40 -160 -4 -7 -22 65 -40 160 -19 94 -39 177
-45 183 -18 19 -66 26 -71 12z"/>
<path d="M3918 7920 c-54 -29 -80 -79 -86 -165 -12 -196 118 -377 251 -350 48
10 109 49 136 86 l24 33 -23 92 c-13 51 -26 98 -30 105 -9 14 -149 -17 -156
-35 -2 -6 0 -24 4 -41 9 -31 31 -38 78 -22 19 7 23 3 29 -29 6 -33 3 -41 -24
-68 -59 -59 -130 -35 -178 61 -23 49 -28 71 -28 136 0 74 2 80 28 103 38 33
78 31 120 -5 l33 -30 32 21 32 20 -18 30 c-42 74 -143 100 -224 58z"/>
<path d="M3600 7807 c-14 -6 -26 -12 -28 -12 -2 -2 125 -291 136 -310 10 -15
-62 45 -177 149 -98 88 -106 93 -133 84 -15 -6 -31 -14 -34 -19 -5 -9 189
-456 205 -472 9 -9 61 12 61 24 0 8 -114 271 -128 294 -7 13 12 -2 155 -129
l121 -107 37 15 c36 15 36 15 22 48 -65 153 -201 448 -206 447 -3 0 -17 -5
-31 -12z"/>
<path d="M6127 7583 l-105 -238 29 -13 c17 -7 33 -10 37 -8 5 3 37 71 72 152
l65 147 3 -186 2 -187 37 -15 c20 -8 37 -14 38 -13 11 18 205 466 205 474 0
14 -51 37 -60 27 -4 -4 -36 -73 -71 -153 l-64 -145 -3 187 -2 186 -32 11 c-17
6 -34 11 -38 11 -4 0 -54 -107 -113 -237z"/>
<path d="M3078 7542 c-16 -9 -28 -21 -28 -27 -1 -27 146 -515 155 -515 5 0 21
9 35 19 23 18 24 22 13 63 -6 24 -14 50 -17 58 -7 19 108 93 133 85 10 -3 32
-20 50 -39 l33 -34 34 20 c19 11 34 24 32 29 -4 12 -396 359 -405 359 -4 0
-20 -8 -35 -18z m209 -241 c3 -5 -70 -51 -80 -51 -5 0 -57 162 -57 175 0 7
133 -113 137 -124z"/>
<path d="M6550 7385 c-107 -97 -196 -179 -198 -184 -1 -4 13 -16 33 -26 l35
-19 42 42 43 41 63 -39 c34 -22 62 -46 62 -53 0 -8 -6 -35 -14 -60 -14 -47
-14 -47 14 -67 15 -11 32 -20 37 -20 9 0 159 519 151 524 -25 19 -55 36 -63
36 -6 0 -98 -79 -205 -175z m143 -37 c-14 -46 -27 -87 -30 -91 -4 -6 -57 20
-82 40 -6 4 121 133 130 133 4 0 -4 -37 -18 -82z"/>
<path d="M7005 7336 c-66 -29 -117 -118 -102 -178 4 -13 23 -50 43 -83 42 -69
45 -102 14 -127 -31 -25 -66 -23 -95 7 -26 25 -31 57 -16 99 8 20 6 27 -14 40
-36 24 -44 20 -65 -26 -23 -52 -25 -87 -6 -133 18 -42 96 -95 141 -95 70 0
157 81 170 160 7 42 2 57 -60 163 -23 41 -26 52 -16 73 14 31 62 33 92 3 17
-17 20 -29 16 -60 -4 -34 -2 -41 23 -59 15 -11 30 -20 33 -20 3 0 13 20 22 45
31 80 -2 157 -82 191 -40 17 -59 17 -98 0z"/>
<path d="M2762 7320 c-72 -44 -162 -122 -154 -134 4 -7 76 -101 161 -209 l153
-196 62 47 c96 74 133 110 140 138 19 72 -56 181 -132 191 -41 5 -42 7 -42 42
0 46 -38 103 -83 125 -45 21 -65 20 -105 -4z m83 -76 c21 -8 46 -59 39 -78 -6
-15 -93 -91 -98 -85 -1 2 -17 23 -35 46 -18 24 -29 48 -26 53 9 14 85 70 96
70 4 0 15 -3 24 -6z m146 -164 c10 -6 26 -24 35 -41 14 -27 14 -33 0 -53 -8
-13 -33 -38 -55 -55 l-40 -32 -40 51 c-23 29 -41 55 -41 59 0 10 100 81 113
81 4 0 17 -5 28 -10z"/>
<path d="M4792 7109 c-124 -21 -264 -110 -331 -210 -54 -80 -77 -162 -95 -335
-9 -78 -20 -152 -25 -166 l-10 -25 72 -5 c43 -3 108 -17 162 -36 239 -83 511
-80 736 8 30 12 87 24 127 27 73 6 74 6 68 32 -3 14 -12 87 -21 161 -19 165
-22 182 -48 245 -97 234 -344 352 -635 304z m158 -357 l21 -67 75 3 c92 5 94
-5 12 -62 l-56 -38 24 -71 c13 -39 22 -72 20 -75 -3 -2 -30 14 -62 37 -31 23
-61 41 -66 41 -5 0 -34 -19 -64 -41 -30 -23 -57 -39 -60 -36 -4 3 3 34 15 68
12 35 21 68 21 73 0 6 -25 27 -55 46 -30 19 -55 40 -55 47 0 8 25 13 77 15
l77 3 20 67 c10 37 23 65 27 62 5 -3 18 -35 29 -72z"/>
<path d="M7165 6935 c-93 -101 -171 -188 -172 -192 -2 -5 8 -20 22 -33 l26
-24 28 29 c15 17 97 104 181 194 l153 163 -29 24 c-16 13 -31 23 -34 23 -3 0
-81 -83 -175 -184z"/>
<path d="M2446 7041 l-38 -39 93 -133 c52 -73 98 -139 103 -147 10 -17 17 -22
-158 92 l-138 89 -41 -41 -41 -42 183 -177 c101 -98 188 -180 193 -182 5 -2
20 7 34 20 l24 23 -142 138 -143 139 168 -111 169 -112 24 23 c13 12 24 27 24
32 0 5 -28 48 -63 96 -34 47 -85 118 -111 156 l-49 70 49 -45 c27 -25 90 -84
139 -133 l91 -88 24 27 25 26 -184 179 c-101 98 -186 179 -190 179 -4 0 -24
-18 -45 -39z"/>
<path d="M7445 6911 c-88 -22 -212 -123 -254 -207 -46 -92 -20 -198 60 -240
78 -40 198 -4 295 88 124 117 147 233 61 316 -50 48 -92 60 -162 43z m96 -110
c36 -37 37 -70 3 -128 -30 -51 -130 -130 -177 -138 -75 -14 -127 42 -107 117
14 49 94 132 155 159 58 27 91 24 126 -10z"/>
<path d="M2053 6588 c-45 -62 -79 -116 -77 -120 7 -11 414 -303 420 -301 3 1
43 54 89 117 l84 115 -36 26 c-19 15 -38 23 -42 19 -5 -5 -34 -44 -65 -87 -39
-54 -61 -75 -70 -70 -37 23 -96 69 -96 76 0 4 23 38 50 76 28 38 50 72 50 76
0 8 -24 29 -51 45 -13 8 -26 -5 -69 -65 -29 -41 -56 -75 -60 -75 -4 0 -26 14
-49 30 -26 19 -39 35 -34 43 4 7 28 42 55 78 26 37 48 71 48 77 0 9 -51 52
-62 52 -2 0 -41 -51 -85 -112z"/>
<path d="M7588 6458 l-218 -141 17 -28 c10 -16 20 -29 24 -29 3 0 65 39 138
86 73 47 134 84 136 82 2 -2 -40 -69 -92 -150 -96 -150 -100 -160 -69 -201 13
-17 28 -10 233 123 120 78 219 144 221 145 6 5 -30 55 -39 55 -5 0 -66 -37
-137 -83 -169 -111 -157 -104 -139 -76 8 13 54 84 101 158 47 74 86 138 86
143 0 12 -31 58 -39 58 -3 0 -104 -64 -223 -142z"/>
<path d="M3938 6421 c-40 -28 -128 -99 -194 -159 -231 -208 -351 -273 -385
-210 -14 27 -5 111 20 184 23 63 16 67 -52 33 -173 -87 -297 -240 -360 -444
-18 -61 -26 -113 -31 -217 -3 -75 -11 -149 -16 -165 -17 -44 -57 -97 -87 -115
-66 -38 -107 27 -102 161 4 74 2 86 -13 89 -28 5 -125 -76 -163 -137 -82 -130
-91 -265 -32 -501 50 -198 60 -265 56 -369 -4 -78 -7 -93 -28 -115 -28 -30
-66 -33 -126 -10 -61 24 -82 27 -90 14 -4 -6 18 -61 49 -123 59 -115 71 -159
95 -353 11 -93 47 -203 92 -282 l31 -55 -29 7 c-15 4 -61 22 -102 41 -40 19
-75 35 -77 35 -11 0 -1 -81 14 -127 34 -96 124 -188 236 -239 31 -14 56 -29
56 -32 0 -4 -17 -17 -38 -29 -55 -31 -142 -112 -142 -131 0 -10 8 -27 18 -39
15 -19 22 -20 67 -13 109 19 212 -15 355 -115 41 -29 94 -62 118 -73 l43 -21
59 32 59 32 33 -19 c97 -56 192 -104 267 -137 75 -32 86 -40 96 -70 l12 -34
1273 0 1273 0 12 34 c10 30 22 38 117 80 58 27 142 69 185 94 44 26 86 47 93
47 7 0 36 -13 65 -30 l52 -30 44 21 c24 12 77 45 119 74 161 113 250 138 388
109 18 -4 26 3 40 32 l17 37 -52 46 c-28 25 -70 57 -92 71 -22 14 -41 28 -41
31 0 3 29 21 65 38 80 40 176 127 205 185 22 46 48 162 38 172 -3 3 -32 -8
-64 -24 -66 -33 -133 -56 -140 -49 -3 2 9 26 25 53 45 73 81 192 97 323 19
151 35 203 94 317 44 85 53 124 29 124 -4 0 -31 -9 -59 -20 -191 -75 -220 60
-109 515 66 271 23 460 -131 576 -77 58 -86 52 -81 -50 2 -62 -1 -92 -13 -120
-25 -53 -46 -64 -87 -43 -72 36 -108 145 -109 322 0 188 -106 406 -258 533
-50 42 -190 122 -198 114 -2 -1 5 -30 15 -62 26 -85 35 -159 21 -184 -33 -62
-153 2 -373 201 -135 122 -267 218 -299 218 -10 0 -21 -6 -24 -13 -2 -7 23
-70 56 -141 99 -207 128 -298 150 -456 12 -84 48 -185 95 -266 27 -46 155
-180 296 -309 70 -65 109 -132 109 -189 0 -90 -70 -84 -242 22 -47 28 -60 32
-72 22 -13 -10 -7 -23 39 -90 108 -154 137 -266 100 -395 -53 -191 -53 -222 0
-307 95 -151 90 -138 89 -213 -1 -89 -21 -149 -51 -153 -32 -5 -80 35 -121
101 -21 35 -41 57 -50 55 -10 -2 -29 -45 -52 -118 -43 -134 -80 -212 -144
-296 -44 -59 -132 -141 -142 -132 -2 3 3 24 11 48 49 138 74 377 56 534 -17
145 -17 146 -57 146 -26 0 -37 -5 -44 -22 -110 -271 -218 -432 -347 -517 -58
-39 -93 -39 -134 -3 -38 34 -50 102 -26 148 8 16 72 85 142 154 137 135 194
203 243 290 75 133 88 229 67 489 -26 323 -17 448 39 559 14 28 26 56 26 61 0
26 -192 -14 -281 -59 -33 -17 -63 -30 -65 -27 -2 2 -8 26 -13 54 -11 53 -23
89 -90 265 -23 59 -46 141 -53 182 -10 69 -14 76 -41 87 -29 12 -31 11 -112
-77 l-83 -89 -7 30 c-10 39 -99 211 -129 249 -13 16 -29 26 -34 22 -20 -12
-112 -173 -135 -236 l-24 -62 -80 88 -81 87 -31 -13 c-17 -7 -31 -15 -32 -19
0 -3 -2 -15 -4 -26 -1 -11 -6 -42 -9 -68 -3 -27 -30 -110 -60 -186 -29 -75
-61 -171 -71 -214 -9 -42 -18 -77 -20 -77 -1 0 -35 15 -76 34 -41 18 -96 38
-124 44 -69 15 -145 21 -145 12 0 -4 11 -32 25 -63 57 -124 66 -246 39 -526
-38 -392 8 -513 306 -807 73 -71 138 -141 146 -156 39 -74 -12 -178 -86 -178
-108 0 -335 288 -406 513 -17 56 -18 57 -55 57 -23 0 -39 -5 -42 -15 -4 -8
-11 -63 -18 -122 -18 -170 -1 -363 46 -511 13 -42 22 -78 20 -80 -8 -9 -99 74
-142 130 -58 76 -128 224 -156 332 -25 99 -41 109 -78 49 -13 -21 -41 -57 -63
-80 -69 -77 -108 -49 -123 87 -7 70 11 127 59 187 80 101 90 172 44 316 -52
161 -23 293 97 452 40 52 44 62 32 74 -12 12 -22 10 -72 -21 -128 -79 -204
-101 -235 -70 -40 40 15 168 105 245 195 167 301 293 347 414 12 32 29 101 36
153 20 131 73 293 149 449 87 178 75 200 -57 112z m1027 -506 c14 -30 32 -82
40 -117 l14 -63 -42 -37 c-23 -20 -44 -37 -47 -37 -3 0 -28 21 -57 47 l-51 47
14 54 c8 30 28 83 45 118 35 74 43 73 84 -12z m-1355 1 c-69 -144 -281 -260
-380 -209 -42 22 -55 55 -46 114 11 71 19 77 56 41 17 -17 46 -34 66 -38 65
-12 168 33 269 116 27 23 51 37 53 31 2 -6 -6 -31 -18 -55z m2723 -26 c114
-77 209 -88 264 -30 15 17 31 30 34 30 12 0 29 -61 29 -102 0 -77 -73 -113
-172 -84 -107 31 -226 130 -263 220 -23 53 -18 61 18 32 17 -14 58 -44 90 -66z
m-1569 -197 c21 -24 43 -43 48 -43 6 0 23 -9 39 -21 l28 -20 -45 -62 c-50 -68
-132 -231 -159 -317 -10 -30 -21 -59 -26 -64 -4 -5 -31 13 -61 41 -29 28 -69
64 -88 79 -48 39 -50 42 -50 99 0 33 13 88 39 160 56 158 104 298 108 313 2
11 63 -48 167 -165z m491 117 c4 -19 27 -84 51 -144 54 -131 84 -236 84 -292
0 -38 -5 -45 -47 -80 -166 -134 -310 -309 -398 -483 l-27 -54 -44 83 c-39 72
-64 110 -151 229 -11 14 -7 35 18 117 59 189 155 343 281 450 33 28 66 60 72
71 22 41 141 161 147 149 4 -6 10 -27 14 -46z m-1021 -445 c138 -57 355 -240
473 -400 156 -209 256 -502 275 -800 3 -39 4 -40 38 -40 l35 0 -3 70 c-4 92
-35 268 -67 380 l-26 89 45 92 c65 134 136 235 250 353 111 113 264 224 360
260 70 26 90 27 82 4 -32 -83 -39 -231 -21 -438 27 -314 19 -398 -48 -518 -53
-93 -99 -149 -255 -304 -141 -140 -162 -172 -162 -244 0 -112 106 -213 204
-195 49 9 146 77 207 144 56 62 140 185 185 272 l29 55 3 -95 c9 -287 -120
-640 -233 -640 -17 0 -89 -18 -160 -39 -363 -109 -723 -106 -1080 9 -53 16
-111 30 -130 30 -113 0 -235 327 -235 629 0 50 4 91 8 91 5 0 17 -19 28 -42
35 -80 153 -244 217 -305 69 -64 154 -113 196 -113 69 1 151 67 171 138 29
106 4 153 -174 327 -181 177 -259 290 -285 413 -14 65 -14 194 0 327 19 192
12 425 -16 498 -10 24 17 22 89 -8z m-1139 -67 c-23 -76 -124 -186 -208 -227
-89 -43 -185 -44 -219 -1 -21 26 -24 96 -6 135 14 31 19 31 48 0 35 -38 86
-48 147 -30 49 15 139 69 198 119 37 31 48 33 40 4z m3711 -23 c62 -51 130
-88 192 -105 52 -14 98 -2 132 35 30 32 36 31 49 -6 26 -74 3 -142 -53 -157
-112 -31 -294 76 -365 215 -21 41 -26 63 -16 63 3 0 30 -20 61 -45z m-3656
-247 c45 -176 93 -229 164 -183 21 14 25 14 37 -1 32 -38 4 -125 -47 -144 -32
-13 -64 1 -102 42 -72 76 -103 177 -88 282 9 57 22 59 36 4z m3575 -61 c0 -63
-5 -93 -21 -128 -25 -54 -88 -127 -121 -140 -33 -12 -70 5 -93 43 -24 40 -25
66 -4 96 15 22 17 22 40 8 71 -47 129 21 169 198 12 56 30 11 30 -77z m-3925
-374 c86 -134 93 -361 15 -439 -28 -28 -90 -32 -135 -9 -39 20 -72 77 -68 117
3 32 3 32 54 29 46 -2 54 1 73 25 28 35 28 127 0 249 -36 154 -36 145 0 108
16 -17 44 -53 61 -80z m4330 91 c0 -3 -12 -51 -26 -107 -34 -131 -37 -215 -8
-254 19 -24 28 -28 75 -29 52 -1 54 -2 57 -30 8 -67 -61 -134 -138 -134 -84 0
-126 88 -118 254 3 71 8 93 40 157 37 74 91 149 109 149 5 0 9 -3 9 -6z
m-3951 -576 c11 -111 31 -162 74 -184 27 -14 33 -14 74 1 53 21 63 13 63 -48
0 -77 -56 -137 -128 -137 -55 0 -84 27 -129 117 -38 76 -38 78 -38 198 1 116
2 122 35 190 l35 70 2 -55 c2 -30 7 -99 12 -152z m3535 127 c54 -136 52 -255
-9 -381 -41 -85 -73 -114 -124 -114 -74 0 -131 59 -131 134 0 65 9 72 64 51
46 -18 48 -18 74 2 15 10 35 35 45 55 19 39 37 165 37 266 0 35 4 61 9 58 5
-3 20 -35 35 -71z m-3931 -700 c215 -36 323 -74 405 -142 l22 -18 -24 -60
c-14 -33 -32 -114 -42 -180 -9 -66 -21 -124 -26 -129 -5 -6 -47 17 -105 57
-119 81 -194 116 -279 130 -36 6 -63 16 -61 22 5 16 99 64 140 71 33 6 37 10
37 35 0 16 0 32 1 37 1 4 -37 21 -83 38 -107 38 -164 72 -222 130 -65 64 -61
77 14 54 33 -10 134 -31 223 -45z m4539 23 c-39 -63 -141 -127 -267 -168 -38
-12 -71 -24 -73 -25 -2 -2 0 -19 3 -38 6 -32 11 -36 44 -42 42 -7 141 -60 141
-75 0 -6 -12 -10 -27 -10 -78 0 -162 -36 -301 -128 -65 -44 -116 -71 -121 -66
-5 5 -16 62 -25 127 -15 103 -26 148 -61 229 -5 13 6 25 47 52 89 59 166 84
375 121 109 19 216 41 238 48 22 8 42 13 44 11 2 -2 -6 -18 -17 -36z m-3807
-255 c295 -133 389 -163 515 -163 l76 0 18 -57 c10 -32 36 -92 57 -133 45 -86
46 -84 -50 -122 -48 -19 -75 -22 -186 -22 -111 0 -142 4 -215 27 -118 36 -235
86 -348 151 -54 30 -114 58 -136 62 l-38 7 6 61 c15 127 49 220 89 236 38 16
108 1 212 -47z m3019 47 c14 -5 32 -22 40 -38 19 -36 43 -131 51 -203 l7 -56
-39 -7 c-21 -4 -81 -32 -135 -62 -113 -65 -230 -115 -348 -151 -73 -23 -104
-27 -215 -27 -111 0 -138 3 -186 22 -97 39 -96 37 -50 122 21 41 47 100 56
131 l16 56 102 5 c123 6 213 34 424 132 175 82 226 96 277 76z m-2187 -44
c215 -67 401 -91 643 -83 190 7 335 30 500 82 119 37 159 42 178 23 30 -30 0
-178 -65 -319 -20 -44 -39 -79 -43 -79 -4 0 -29 9 -55 21 -54 24 -109 23 -230
-5 -130 -30 -339 -41 -497 -28 -135 11 -281 36 -303 50 -6 4 -8 37 -5 82 l5
75 14 -72 c11 -58 18 -73 32 -73 14 0 21 13 30 60 16 82 29 85 29 6 0 -52 3
-66 15 -66 12 0 15 19 15 110 l0 110 -29 0 c-28 0 -29 -3 -41 -66 -7 -36 -16
-62 -20 -57 -4 4 -12 34 -19 66 -12 54 -14 57 -42 57 l-29 0 0 -115 0 -115
-28 0 c-16 0 -50 -11 -76 -24 l-47 -24 -39 78 c-64 128 -99 297 -68 328 19 19
59 14 175 -22z"/>
<path d="M3361 3175 c-21 -101 -21 -125 -1 -125 5 0 28 33 50 73 l41 72 -8
-50 c-10 -70 -10 -109 2 -114 9 -4 115 173 115 192 0 23 -28 -5 -54 -53 -34
-62 -41 -55 -28 22 8 38 7 55 -1 60 -13 9 -24 -3 -63 -67 l-25 -40 6 45 c3 25
8 55 12 68 3 15 1 22 -9 22 -10 0 -21 -31 -37 -105z"/>
<path d="M3541 3110 c-31 -90 -35 -130 -12 -104 9 10 71 181 71 195 0 5 -6 9
-13 9 -7 0 -27 -44 -46 -100z"/>
<path d="M3597 3092 c-21 -55 -37 -102 -37 -105 0 -11 70 -28 90 -22 30 10 70
95 70 150 0 43 -2 47 -35 61 -19 7 -38 14 -43 14 -5 0 -25 -44 -45 -98z m83
43 c27 -32 -11 -135 -50 -135 -35 0 -34 14 9 123 12 31 23 34 41 12z"/>
<path d="M3764 3082 c5 -53 3 -79 -8 -107 -9 -21 -16 -44 -16 -52 0 -27 23 -7
37 31 7 21 33 62 58 91 25 29 45 56 45 59 0 17 -31 2 -53 -24 -14 -16 -28 -30
-31 -30 -3 0 -6 21 -8 47 -2 29 -8 48 -17 51 -11 4 -13 -8 -7 -66z"/>
<path d="M3863 2996 c-35 -51 -63 -96 -63 -100 0 -14 29 -4 41 15 13 18 17 19
42 8 20 -9 27 -19 27 -41 0 -33 17 -38 25 -5 10 43 10 210 0 213 -5 2 -38 -39
-72 -90z m48 -39 c-8 -8 -14 -8 -22 0 -8 8 -6 19 8 39 l18 28 3 -28 c2 -16 -1
-33 -7 -39z"/>
<path d="M6344 3207 c-10 -26 10 -220 24 -225 8 -2 12 7 12 27 0 24 5 32 25
37 17 4 32 1 44 -10 17 -15 41 -22 41 -11 0 12 -123 195 -131 195 -5 0 -12 -6
-15 -13z m63 -111 c-9 -26 -32 -10 -35 24 l-2 35 20 -24 c11 -13 19 -29 17
-35z"/>
<path d="M6177 3152 c-23 -25 -21 -54 4 -86 13 -17 30 -26 49 -26 31 0 55 -23
46 -45 -7 -19 -35 -19 -57 1 -26 23 -32 0 -8 -30 25 -31 52 -33 80 -5 37 37 4
119 -47 119 -36 0 -54 11 -54 31 0 21 29 26 47 8 19 -19 26 11 7 32 -22 24
-46 24 -67 1z"/>
<path d="M6030 3056 c0 -97 12 -176 26 -176 9 0 14 11 14 30 0 23 5 31 26 36
19 5 29 1 40 -15 16 -23 34 -28 34 -10 0 21 -112 189 -126 189 -10 0 -14 -15
-14 -54z m60 -63 c0 -7 -7 -13 -15 -13 -10 0 -15 10 -15 33 1 30 1 31 15 13 8
-11 15 -26 15 -33z"/>
<path d="M5937 3073 c-4 -3 -7 -24 -7 -47 l0 -40 -33 32 c-30 29 -57 41 -57
26 0 -3 20 -28 44 -56 25 -29 49 -69 56 -94 8 -27 18 -44 27 -44 11 0 13 6 8
23 -4 12 -10 64 -12 115 -5 86 -10 102 -26 85z"/>
<path d="M4720 3197 c0 -1 9 -49 20 -107 11 -58 20 -106 20 -107 0 -2 9 -3 19
-3 21 0 22 3 41 88 7 28 16 52 20 52 5 0 14 -32 21 -70 11 -62 15 -71 33 -68
16 2 23 17 36 78 32 145 31 140 11 140 -16 0 -21 -13 -32 -70 -7 -39 -15 -68
-17 -65 -3 3 -11 33 -17 68 -10 56 -13 62 -35 62 -22 0 -26 -7 -38 -63 -8 -34
-17 -60 -22 -57 -4 3 -11 32 -15 65 -6 50 -10 60 -26 60 -10 0 -19 -1 -19 -3z"/>
<path d="M5072 3102 c-17 -54 -32 -103 -32 -110 0 -22 30 -12 40 13 8 20 16
25 45 25 29 0 37 -5 45 -25 10 -26 40 -35 40 -12 0 6 -15 55 -34 107 -47 132
-61 133 -104 2z m67 -14 c1 -12 -6 -18 -19 -18 -17 0 -19 4 -14 28 4 15 9 31
12 36 6 11 20 -20 21 -46z"/>
<path d="M5290 3186 c0 -9 12 -16 28 -18 l27 -3 3 -92 c2 -73 6 -93 17 -93 11
0 15 20 17 93 l3 92 28 3 c15 2 27 9 27 18 0 11 -17 14 -75 14 -58 0 -75 -3
-75 -14z"/>
<path d="M1883 6305 c-21 -15 -129 -183 -122 -190 10 -9 441 -265 447 -265 7
0 45 61 40 65 -2 1 -40 24 -85 50 l-82 49 30 55 c41 79 39 120 -8 173 -64 70
-168 100 -220 63z m141 -100 c14 -13 26 -31 26 -40 0 -23 -39 -95 -51 -95 -16
0 -119 63 -119 73 0 11 40 69 55 79 21 15 63 7 89 -17z"/>
<path d="M7845 6075 c-121 -24 -234 -46 -252 -50 l-32 -6 17 -35 c16 -35 17
-36 64 -30 27 4 55 9 63 12 10 4 24 -15 49 -63 l35 -70 -45 -45 -45 -44 18
-32 c10 -18 21 -32 24 -32 3 0 95 84 203 186 l197 186 -20 32 c-11 17 -28 32
-38 33 -10 1 -117 -18 -238 -42z m90 -110 c-38 -36 -72 -65 -76 -65 -3 0 -15
20 -26 44 l-22 44 77 17 c42 9 82 18 87 20 32 11 23 -3 -40 -60z"/>
<path d="M7988 5722 c-131 -48 -238 -91 -238 -96 0 -8 80 -236 86 -244 2 -4
84 20 84 24 0 2 -14 42 -31 89 -18 48 -28 90 -23 95 5 4 95 38 199 76 105 37
192 69 193 70 6 4 -19 74 -26 73 -4 0 -114 -39 -244 -87z"/>
<path d="M1627 5752 c-34 -21 -67 -86 -67 -133 0 -101 137 -174 226 -120 17
10 51 42 74 70 49 58 79 71 114 48 32 -21 40 -60 21 -97 -15 -29 -31 -37 -90
-42 -24 -3 -30 -9 -36 -35 -3 -18 -4 -35 -1 -38 3 -3 33 -5 66 -5 74 0 115 22
140 75 45 95 24 161 -65 208 -45 24 -63 28 -108 24 -53 -4 -57 -6 -122 -75
-36 -40 -72 -72 -79 -72 -30 0 -50 22 -50 55 0 44 29 75 70 75 25 0 31 5 38
33 5 17 7 35 5 40 -8 14 -108 7 -136 -11z"/>
<path d="M1743 5316 c-144 -6 -264 -14 -267 -17 -4 -3 -7 -23 -9 -43 l-2 -38
230 -133 c127 -74 233 -131 236 -127 4 4 10 21 14 38 6 30 3 33 -49 63 -53 31
-54 32 -46 64 5 17 14 51 20 75 l11 42 60 0 c55 0 60 2 69 26 12 30 13 65 3
62 -5 0 -126 -6 -270 -12z m33 -118 c-4 -24 -11 -47 -15 -51 -5 -5 -43 11 -86
35 l-77 43 63 6 c133 12 122 15 115 -33z"/>
<path d="M8238 5258 c-46 -10 -47 -11 -41 -41 3 -18 7 -34 9 -36 2 -2 24 0 49
3 36 6 45 11 45 27 0 23 36 26 66 5 16 -12 22 -12 38 -1 17 13 16 15 -15 34
-36 22 -76 25 -151 9z"/>
<path d="M8273 5138 c-55 -10 -60 -17 -47 -64 5 -19 9 -20 55 -11 42 8 49 13
44 28 -5 15 -1 19 17 19 13 0 33 -7 44 -15 18 -12 24 -12 39 -1 17 13 17 14
-7 30 -34 22 -81 27 -145 14z"/>
<path d="M1419 5019 c-2 -15 -27 -304 -26 -305 1 -1 21 -4 44 -7 l42 -5 7 59
7 59 36 -5 c35 -5 372 -35 391 -35 6 0 10 17 10 39 l0 38 -57 6 c-32 3 -129
12 -217 19 l-158 12 5 58 c5 54 4 58 -16 58 -12 0 -32 3 -44 6 -13 4 -23 5
-24 3z"/>
<path d="M8195 4909 c-137 -49 -250 -91 -252 -92 -1 -1 1 -21 4 -43 l5 -40
267 -46 c146 -25 268 -44 269 -42 2 1 1 20 -3 42 l-6 38 -190 29 c-104 16
-186 31 -182 35 4 4 86 34 180 66 l173 59 0 43 c0 23 -3 42 -7 42 -5 -1 -120
-41 -258 -91z"/>
<path d="M1390 4601 l0 -41 53 -1 c28 0 144 -4 257 -8 113 -5 206 -8 207 -7 0
0 4 17 8 37 l7 37 -114 6 c-62 3 -182 8 -265 12 l-153 5 0 -40z"/>
<path d="M7956 4528 c-3 -13 -6 -78 -6 -145 l0 -123 45 0 45 0 0 105 0 105 76
0 76 0 -7 -95 -7 -95 46 0 46 0 0 49 c0 26 3 69 6 95 l7 46 53 0 54 0 0 -105
0 -105 45 0 45 0 0 145 0 145 -259 0 -259 0 -6 -22z"/>
<path d="M1705 4458 c-51 -18 -84 -58 -105 -125 -28 -91 -36 -103 -69 -103
-38 0 -53 20 -49 67 2 32 8 40 35 53 20 9 31 20 28 28 -3 8 -5 25 -5 38 0 30
-19 31 -77 3 -52 -25 -73 -61 -73 -126 0 -116 104 -175 217 -124 50 23 66 46
88 126 25 90 78 122 125 75 43 -43 17 -120 -46 -136 -24 -6 -25 -10 -19 -43 4
-20 8 -37 9 -38 6 -7 78 20 107 40 44 29 59 60 59 123 0 60 -29 111 -75 133
-39 19 -112 23 -150 9z"/>
<path d="M8376 4148 c-3 -13 -6 -38 -6 -56 l0 -33 -47 6 c-68 9 -388 43 -389
41 -1 0 -4 -17 -8 -37 -8 -44 -21 -40 224 -64 229 -22 210 -15 203 -79 -5 -50
-4 -53 18 -59 66 -18 64 -21 81 141 8 81 13 150 11 155 -2 4 -21 7 -42 7 -32
0 -40 -4 -45 -22z"/>
<path d="M1852 4084 c-46 -32 -91 -68 -99 -81 l-16 -24 -33 32 c-69 67 -222
38 -255 -49 -10 -26 16 -228 31 -245 6 -7 336 46 492 79 28 6 30 14 13 70 -2
7 -35 5 -105 -7 -56 -10 -106 -16 -111 -13 -5 3 -9 16 -9 28 0 27 44 70 132
131 60 41 66 55 50 113 -7 22 -9 21 -90 -34z m-212 -124 c11 -6 23 -30 29 -60
16 -75 15 -77 -31 -84 -24 -4 -53 -9 -64 -12 -20 -5 -23 0 -32 56 -13 69 -10
83 21 98 28 14 54 14 77 2z"/>
<path d="M7880 3828 c-6 -23 -22 -82 -36 -130 -13 -48 -24 -93 -24 -101 0 -9
17 -19 40 -25 l39 -10 15 52 c8 28 20 74 27 101 7 28 13 51 14 53 6 7 135 -33
135 -43 0 -5 -9 -44 -20 -85 -11 -41 -20 -80 -20 -85 0 -6 18 -16 40 -22 l40
-10 15 51 c7 28 19 71 25 94 10 39 14 43 33 38 12 -4 35 -9 50 -13 16 -3 31
-11 33 -17 2 -6 -7 -51 -20 -101 -14 -49 -21 -93 -18 -97 9 -9 82 -22 82 -14
0 3 16 65 36 137 19 72 34 132 32 133 -2 2 -111 31 -243 66 -132 35 -245 65
-252 67 -7 3 -16 -13 -23 -39z"/>
<path d="M1963 3714 c-18 -8 -33 -15 -33 -17 0 -2 14 -43 30 -92 17 -49 30
-94 30 -100 0 -6 -24 -19 -52 -30 -29 -10 -58 -20 -64 -22 -7 -3 -23 28 -38
74 -36 108 -36 108 -80 93 -20 -6 -36 -18 -36 -25 0 -8 13 -50 29 -94 l30 -79
-46 -16 c-26 -9 -52 -16 -58 -16 -6 0 -23 37 -38 83 -36 110 -35 109 -80 95
-20 -6 -37 -17 -37 -24 0 -16 80 -246 89 -256 4 -4 29 1 56 11 28 10 138 48
247 85 l196 68 -48 136 c-26 75 -51 137 -56 138 -5 1 -24 -4 -41 -12z"/>
<path d="M7777 3493 c-2 -10 -8 -25 -11 -34 -5 -12 14 -23 94 -53 104 -40 115
-51 81 -85 -18 -18 -35 -21 -188 -37 -42 -4 -63 -11 -63 -20 0 -7 -15 -42 -34
-77 l-34 -65 44 -43 43 -43 -31 -55 c-46 -84 -45 -83 -108 -66 -30 8 -56 15
-57 15 -4 0 -45 -71 -42 -74 6 -5 512 -126 525 -126 6 0 19 15 29 34 l19 34
-187 194 c-210 217 -205 204 -72 207 33 1 78 8 100 16 22 8 41 15 43 15 1 0 2
-14 2 -30 0 -45 28 -80 85 -106 87 -41 153 -28 186 38 26 52 80 191 75 195 -7
8 -470 183 -482 183 -6 0 -14 -8 -17 -17z m334 -184 l57 -21 -14 -41 c-8 -23
-21 -52 -30 -64 -20 -31 -67 -31 -99 1 -20 20 -23 29 -15 53 16 54 32 93 37
93 3 0 32 -9 64 -21z m-261 -414 c35 -36 61 -65 57 -65 -28 0 -177 44 -177 53
0 13 40 77 49 77 3 0 36 -29 71 -65z"/>
<path d="M1900 3249 c-129 -22 -241 -42 -248 -44 -10 -4 -9 -12 4 -37 9 -18
18 -34 19 -36 3 -3 326 53 370 64 19 5 19 5 -1 -13 -11 -10 -82 -66 -158 -126
l-136 -107 16 -33 c9 -17 18 -34 20 -36 3 -3 372 287 412 323 20 20 -11 86
-41 85 -12 -1 -128 -19 -257 -40z"/>
<path d="M2070 2929 c-113 -66 -211 -124 -219 -128 -20 -12 14 -75 37 -66 13
5 427 241 440 251 8 6 -30 64 -41 63 -6 0 -104 -55 -217 -120z"/>
<path d="M2155 2769 c-110 -77 -204 -144 -209 -149 -12 -12 22 -63 38 -57 7 3
66 43 132 89 157 110 153 108 133 78 -8 -14 -53 -87 -98 -163 -79 -131 -83
-140 -70 -164 8 -14 19 -28 26 -30 11 -4 433 282 433 293 0 9 -32 54 -39 54
-4 0 -58 -36 -121 -81 -120 -84 -156 -107 -148 -92 3 4 44 74 92 156 l87 147
-18 30 c-9 17 -22 30 -28 30 -5 0 -100 -64 -210 -141z"/>
<path d="M7417 2795 c-10 -14 -15 -29 -12 -34 3 -6 62 -53 131 -105 70 -53
123 -96 118 -96 -5 0 -85 18 -179 39 l-170 40 -22 -27 c-13 -15 -23 -30 -23
-34 0 -4 93 -78 207 -164 l207 -156 23 28 c12 16 21 30 19 31 -2 2 -63 48
-136 103 -73 55 -127 100 -119 100 8 0 90 -18 184 -39 156 -36 170 -38 182
-23 37 47 41 41 -174 203 -113 85 -209 155 -212 156 -3 1 -14 -9 -24 -22z"/>
<path d="M3931 2623 c0 -5 10 -35 22 -68 l22 -60 943 -3 942 -2 25 56 c14 31
25 63 25 70 0 12 -156 14 -990 14 -544 0 -990 -3 -989 -7z"/>
<path d="M2534 2532 c-40 -19 -334 -258 -334 -271 0 -4 11 -18 25 -31 22 -21
27 -22 42 -9 10 9 61 51 113 95 129 109 179 144 205 144 31 0 65 -40 65 -77 0
-34 -53 -89 -213 -218 -47 -38 -86 -73 -86 -77 -1 -4 10 -19 23 -34 l23 -28
129 110 c168 142 202 178 214 226 15 53 0 94 -49 142 -48 47 -97 55 -157 28z"/>
<path d="M4190 2403 c0 -5 9 -39 18 -78 l18 -70 692 -3 691 -2 11 42 c6 24 13
51 16 61 2 9 7 26 10 37 5 20 1 20 -725 20 -402 0 -731 -3 -731 -7z"/>
<path d="M7420 2269 c0 -41 31 -90 81 -130 l40 -32 25 24 24 23 -37 38 c-29
30 -39 35 -51 26 -11 -10 -17 -8 -28 7 -8 10 -14 29 -14 41 0 18 -17 34 -36
34 -2 0 -4 -14 -4 -31z"/>
<path d="M7334 2196 c-11 -28 16 -82 66 -131 l50 -49 25 24 c14 13 25 26 25
29 0 3 -16 19 -35 34 -27 22 -39 26 -49 18 -17 -14 -36 7 -40 45 -4 32 -33 53
-42 30z"/>
<path d="M6533 1920 c-24 -10 -86 -45 -138 -76 -68 -40 -94 -61 -90 -72 15
-39 258 -432 267 -432 6 0 26 9 45 21 l34 21 -27 47 c-15 25 -40 66 -56 91
l-28 45 21 18 c34 27 72 20 182 -34 l103 -52 48 30 47 30 -23 15 c-42 27 -152
81 -191 93 l-38 11 21 27 c49 61 24 166 -49 214 -41 28 -73 29 -128 3z m86
-104 c39 -41 26 -74 -47 -123 -35 -24 -68 -43 -72 -43 -13 0 -71 100 -65 110
9 14 128 80 146 80 8 0 26 -11 38 -24z"/>
<path d="M3290 1729 c-52 -88 -104 -169 -117 -181 -47 -44 -109 9 -83 72 7 17
11 32 9 33 -8 5 -80 37 -84 37 -2 0 -11 -22 -20 -50 -27 -81 -2 -141 76 -180
64 -33 123 -25 177 24 21 18 203 310 217 348 4 9 -8 22 -34 36 -21 12 -40 22
-42 22 -2 0 -47 -73 -99 -161z"/>
<path d="M6242 1762 c-53 -17 -54 -6 22 -204 75 -196 76 -200 38 -238 -25 -24
-39 -30 -76 -30 -60 0 -70 14 -146 215 -35 91 -69 165 -74 165 -6 0 -28 -8
-48 -18 l-37 -17 73 -182 c71 -181 96 -222 148 -249 36 -19 103 -17 156 5 105
42 147 110 123 199 -9 38 -129 364 -134 368 -1 1 -22 -5 -45 -14z"/>
<path d="M3441 1558 l-192 -201 46 -20 47 -20 45 45 45 46 89 -41 89 -40 -6
-63 -7 -62 48 -21 c27 -12 49 -20 51 -19 2 3 34 490 34 530 0 20 -8 31 -27 41
-66 34 -56 41 -262 -175z m184 -37 c-4 -50 -11 -91 -15 -91 -9 0 -102 39 -108
45 -3 2 24 36 59 74 34 39 65 69 67 67 2 -3 0 -45 -3 -95z"/>
<path d="M3810 1654 c0 -16 -7 -126 -15 -244 -20 -295 -23 -265 31 -284 26 -9
50 -14 54 -11 4 3 43 67 86 142 130 230 117 230 109 -2 l-7 -200 48 -13 c26
-7 51 -9 55 -5 14 15 249 448 249 459 0 7 -12 15 -27 18 -16 4 -35 9 -45 12
-12 4 -30 -22 -76 -113 -33 -65 -72 -138 -87 -163 l-26 -45 6 105 c3 58 8 141
11 185 l5 80 -45 13 c-26 6 -53 12 -60 12 -8 0 -54 -69 -103 -154 -48 -85 -89
-153 -90 -152 -2 1 4 81 12 176 8 95 12 176 10 180 -3 4 -17 10 -32 13 -16 3
-36 9 -45 12 -15 6 -18 2 -18 -21z"/>
<path d="M5823 1602 l-63 -15 -2 -181 -3 -181 -82 161 -83 161 -70 -15 c-46
-10 -70 -20 -70 -30 0 -16 110 -495 115 -500 5 -5 85 18 85 24 0 3 -18 84 -40
179 -22 95 -40 177 -39 182 0 4 40 -71 89 -169 l89 -176 38 9 c21 5 41 9 45 9
4 0 9 93 10 206 l3 206 44 -192 44 -192 41 6 c22 4 42 9 44 11 9 8 -113 515
-123 514 -5 -1 -38 -8 -72 -17z"/>
<path d="M5348 1503 c-21 -2 -38 -10 -38 -16 0 -7 14 -120 30 -252 16 -132 30
-246 30 -252 0 -9 13 -11 48 -6 26 3 48 7 50 8 1 1 -12 120 -29 264 -21 167
-36 260 -43 259 -6 -1 -28 -3 -48 -5z"/>
<path d="M4376 1251 c-100 -199 -122 -251 -109 -251 10 0 34 -3 54 -6 35 -6
36 -6 60 51 l24 56 79 -6 c113 -9 123 -15 131 -69 10 -61 22 -74 75 -77 40 -3
45 -1 42 16 -8 46 -123 519 -127 523 -2 3 -27 7 -54 10 l-50 4 -125 -251z
m185 27 c23 -103 23 -107 2 -103 -10 2 -39 7 -65 10 l-47 6 42 88 c23 48 44
87 45 85 2 -1 12 -40 23 -86z"/>
<path d="M5030 1480 c-63 -4 -118 -8 -122 -9 -5 0 -8 -21 -8 -45 l0 -44 73 5
74 6 10 -217 c6 -119 13 -219 16 -222 3 -3 26 -2 52 2 46 6 47 7 41 38 -3 17
-8 115 -12 219 l-7 187 72 0 72 0 -3 43 -3 42 -70 1 c-38 0 -122 -2 -185 -6z"/>
</g>
</svg>
